# xmcd
#
# Track frame offsets:
#	150
#	4067
#	18402
#	29332
#	60357
#	74955
#	97497
#	115470
#	120010
#	144322
#	160842
#	195745
#	234477
#	250695
#
# Disc length: 4465 seconds
#
# Revision: 0
# Processed by: cddbd v1.4PL0 Copyright (c) Steve Scherf et al.
# Submitted via: EasyCDDAExtractor 4.6.9.1
#
DISCID=bc116f0e
DTITLE=Various Artist - The Great 1955 Shrine Concert, Live
DYEAR=1955
DGENRE=Gospel
TTITLE0=Pilgrim Travellers - Spoken Introduction
TTITLE1=Pilgrim Travellers - All the Way
TTITLE2=Pilgrim Travellers - Straight Street
TTITLE3=Caravans - Since I Met Jesus
TTITLE4=Caravans - What Kind of Man Is This
TTITLE5=Joe May - It's a Long, Long Way
TTITLE6=Joe May - I'm Happy Working for the Lord
TTITLE7=Annette May - Remarks by Joe May
TTITLE8=Annette May - Consider Me
TTITLE9=Soul Stirrers, Sam Cooke - I Hava a Friend Above All Others
TTITLE10=Soul Stirrers, Sam Cooke - Be with Me Jesus
TTITLE11=Soul Stirrers, Sam Cooke - Nearer to Thee
TTITLE12=Ethel Davenport - My Troubles are so Hard to Bear
TTITLE13=Dorothy Love Coates, Gospel Harmonettes - Live Medley
EXTD=
EXTT0=
EXTT1=
EXTT2=
EXTT3=
EXTT4=
EXTT5=
EXTT6=
EXTT7=
EXTT8=
EXTT9=
EXTT10=
EXTT11=
EXTT12=
EXTT13=
PLAYORDER=
